<?xml version="1.0" encoding="utf-8"?>
<!-- Generator: Adobe Illustrator 15.1.0, SVG Export Plug-In . SVG Version: 6.00 Build 0)  -->
<!DOCTYPE svg PUBLIC "-//W3C//DTD SVG 1.1 Basic//EN" "http://www.w3.org/Graphics/SVG/1.1/DTD/svg11-basic.dtd">
<svg version="1.1" baseProfile="basic" id="Layer_1"
	 xmlns="http://www.w3.org/2000/svg" xmlns:xlink="http://www.w3.org/1999/xlink" x="0px" y="0px" width="28.461px"
	 height="31.779px" viewBox="153.686 21.776 28.461 31.779" xml:space="preserve">
<g>
	<path fill="#8CC84B" d="M167.912,53.555c-0.43,0-0.857-0.113-1.232-0.33l-3.928-2.324c-0.586-0.326-0.3-0.442-0.105-0.51
		c0.781-0.271,0.939-0.334,1.774-0.809c0.087-0.051,0.202-0.029,0.292,0.021l3.018,1.791c0.108,0.062,0.264,0.062,0.363,0
		l11.762-6.789c0.108-0.063,0.18-0.188,0.18-0.316V30.716c0-0.133-0.07-0.257-0.184-0.323l-11.756-6.783
		c-0.107-0.063-0.252-0.063-0.361,0l-11.754,6.785c-0.113,0.064-0.187,0.192-0.187,0.321v13.573c0,0.13,0.071,0.252,0.187,0.313
		l3.222,1.862c1.748,0.873,2.817-0.155,2.817-1.19V31.874c0-0.188,0.152-0.339,0.342-0.339h1.492c0.187,0,0.34,0.148,0.34,0.339
		v13.399c0,2.334-1.271,3.672-3.481,3.672c-0.681,0-1.215,0-2.709-0.735l-3.084-1.776c-0.763-0.438-1.233-1.264-1.233-2.145V30.716
		c0-0.882,0.473-1.704,1.233-2.144l11.761-6.796c0.744-0.421,1.733-0.421,2.473,0l11.76,6.796c0.762,0.439,1.234,1.262,1.234,2.144
		v13.573c0,0.881-0.474,1.701-1.234,2.145l-11.76,6.791C168.773,53.441,168.348,53.555,167.912,53.555z"/>
	<path fill="#8CC84B" d="M171.544,44.203c-5.146,0-6.226-2.362-6.226-4.344c0-0.188,0.152-0.34,0.341-0.34h1.521
		c0.17,0,0.313,0.123,0.338,0.289c0.229,1.547,0.914,2.33,4.026,2.33c2.478,0,3.532-0.562,3.532-1.875
		c0-0.759-0.299-1.32-4.148-1.699c-3.219-0.316-5.209-1.028-5.209-3.604c0-2.372,2-3.788,5.354-3.788
		c3.769,0,5.633,1.308,5.869,4.113c0.009,0.099-0.025,0.19-0.09,0.262c-0.064,0.067-0.154,0.108-0.25,0.108h-1.525
		c-0.158,0-0.299-0.112-0.33-0.266c-0.366-1.629-1.258-2.148-3.674-2.148c-2.704,0-3.02,0.941-3.02,1.646
		c0,0.855,0.371,1.104,4.023,1.588c3.613,0.479,5.33,1.154,5.33,3.695C177.408,42.736,175.271,44.203,171.544,44.203z"/>
</g>
</svg>
