<?xml version="1.0" encoding="utf-8"?>
<!-- Generator: Adobe Illustrator 15.1.0, SVG Export Plug-In . SVG Version: 6.00 Build 0)  -->
<!DOCTYPE svg PUBLIC "-//W3C//DTD SVG 1.1//EN" "http://www.w3.org/Graphics/SVG/1.1/DTD/svg11.dtd">
<svg version="1.1" id="Layer_1" xmlns="http://www.w3.org/2000/svg" xmlns:xlink="http://www.w3.org/1999/xlink" x="0px" y="0px"
	 width="594px" height="174px" viewBox="0 0 594 174" enable-background="new 0 0 594 174" xml:space="preserve">
<g>
	<g>
		<line fill="none" stroke="#000000" stroke-miterlimit="10" x1="176" y1="88.5" x2="225" y2="88.5"/>
		<g>
			<polygon points="222.1020508,92.0898438 221.4199219,91.3574219 225.0317383,88.0009766 221.4199219,84.6435547 
				222.1020508,83.9111328 226.5,88.0009766 			"/>
		</g>
	</g>
</g>
<g>
	<g>
		<line fill="none" stroke="#000000" stroke-miterlimit="10" x1="366" y1="88.5" x2="415" y2="88.5"/>
		<g>
			<polygon points="412.1020508,92.0898438 411.4199219,91.3574219 415.0317383,88.0009766 411.4199219,84.6435547 
				412.1020508,83.9111328 416.5,88.0009766 			"/>
		</g>
	</g>
</g>
<g>
	<circle fill="#FFFFFF" stroke="#000000" stroke-miterlimit="10" cx="486" cy="87" r="51"/>
	<g>
		<path d="M491.6694336,86.1152344v10.6083984c0,0.3115234-0.2641602,0.5761719-0.5761719,0.5761719
			s-0.5761719-0.2646484-0.5761719-0.5761719v-1.7519531c-1.0078125,1.3916016-2.6162109,2.328125-4.4165039,2.328125
			c-3.0961914,0-5.5683594-2.6640625-5.5683594-5.8798828c0-3.2167969,2.472168-5.8808594,5.5683594-5.8808594
			c1.800293,0,3.4086914,0.9121094,4.4165039,2.3037109v-1.7275391c0-0.3359375,0.2641602-0.5761719,0.5761719-0.5761719
			S491.6694336,85.7792969,491.6694336,86.1152344z M490.5170898,91.4199219c0-2.640625-1.9921875-4.7529297-4.4165039-4.7529297
			c-2.3999023,0-4.4160156,2.1123047-4.4160156,4.7529297c0,2.6396484,2.0161133,4.7275391,4.4160156,4.7275391
			C488.5249023,96.1474609,490.5170898,94.0595703,490.5170898,91.4199219z"/>
	</g>
</g>
<g>
	<circle fill="#FFFFFF" stroke="#000000" stroke-miterlimit="10" cx="297" cy="87" r="51"/>
	<g>
		<path d="M293.3125,88.1835938v-0.2402344V87.703125V77.5742188c0-0.3125,0.2636719-0.5761719,0.5756836-0.5761719
			c0.3359375,0,0.6000977,0.2636719,0.6000977,0.5761719v6.7685547c1.0322266-1.3916016,2.6645508-2.3037109,4.5126953-2.3037109
			c3.1679688,0,5.6884766,2.640625,5.6884766,5.9042969c0,3.2167969-2.5205078,5.8564453-5.6884766,5.8564453
			c-1.8481445,0-3.4804688-0.8876953-4.5126953-2.2802734v1.7041016c0,0.3115234-0.2641602,0.5761719-0.6000977,0.5761719
			c-0.3120117,0-0.5756836-0.2646484-0.5756836-0.5761719V88.1835938z M294.4882813,87.9433594
			c0,2.5917969,2.0400391,4.6796875,4.5126953,4.6796875c2.4960938,0,4.512207-2.0878906,4.512207-4.6796875
			c0-2.6162109-2.0161133-4.7285156-4.512207-4.7285156c-2.4243164,0-4.4165039,2.015625-4.5126953,4.5371094V87.9433594z"/>
	</g>
</g>
<g>
	<circle fill="#FFFFFF" stroke="#000000" stroke-miterlimit="10" cx="107" cy="88" r="51"/>
	<g>
		<path d="M103.5400391,90.8955078c0-3.2646484,2.6884766-5.8564453,6.0483398-5.8564453
			c1.3920898,0,2.7124023,0.4804688,3.7446289,1.2958984c0.2397461,0.1679688,0.2880859,0.5283203,0.0717773,0.7919922
			c-0.1918945,0.2158203-0.527832,0.2880859-0.7919922,0.0957031c-0.8398438-0.671875-1.8959961-1.0556641-3.0244141-1.0556641
			c-2.7358398,0-4.8959961,2.1357422-4.8959961,4.7285156c0,2.6396484,2.1601563,4.7519531,4.8959961,4.7519531
			c1.128418,0,2.1845703-0.3837891,3.0244141-1.0322266c0.2641602-0.1914063,0.6000977-0.1191406,0.7919922,0.0957031
			c0.2163086,0.2646484,0.1679688,0.625-0.1196289,0.8408203c-0.984375,0.7685547-2.3046875,1.2480469-3.6967773,1.2480469
			C106.2285156,96.7998047,103.5400391,94.2070313,103.5400391,90.8955078z"/>
	</g>
</g>
</svg>
